<?xml version="1.0" encoding="UTF-8" ?>
<svg viewBox="0 0 100 100" xmlns="http://www.w3.org/2000/svg"><clipPath id="clip-path-8c11fb"><polygon points="0,17,33,50,0,83,17,100,50,67,83,100,100,83,67,50,100,17,83,0,50,33,17,0"></polygon></clipPath><g clip-path="url(#clip-path-8c11fb)"><polygon fill="#297991" stroke="#297991" stroke-width="0.1%" stroke-linejoin="round" points="56.43081,39.98811,48.79167,20.57615,42.19775,34.89248"></polygon><polygon fill="#227892" stroke="#227892" stroke-width="0.1%" stroke-linejoin="round" points="56.43081,39.98811,62.77043,11.86795,48.79167,20.57615"></polygon><polygon fill="#1b8495" stroke="#1b8495" stroke-width="0.1%" stroke-linejoin="round" points="42.19775,34.89248,36.11068,48.49994,56.43081,39.98811"></polygon><polygon fill="#2d8296" stroke="#2d8296" stroke-width="0.1%" stroke-linejoin="round" points="48.79167,20.57615,29.70222,16.75882,42.19775,34.89248"></polygon><polygon fill="#267d8c" stroke="#267d8c" stroke-width="0.1%" stroke-linejoin="round" points="42.19775,34.89248,17.75216,39.05357,36.11068,48.49994"></polygon><polygon fill="#2d8595" stroke="#2d8595" stroke-width="0.1%" stroke-linejoin="round" points="38.01748,-1.67012,29.70222,16.75882,48.79167,20.57615"></polygon><polygon fill="#28829c" stroke="#28829c" stroke-width="0.1%" stroke-linejoin="round" points="56.43081,39.98811,77.31776,25.46396,62.77043,11.86795"></polygon><polygon fill="#2b7f98" stroke="#2b7f98" stroke-width="0.1%" stroke-linejoin="round" points="56.43081,39.98811,75.37732,51.66940,77.31776,25.46396"></polygon><polygon fill="#227d9c" stroke="#227d9c" stroke-width="0.1%" stroke-linejoin="round" points="58.99657,65.12116,75.37732,51.66940,56.43081,39.98811"></polygon><polygon fill="#227c99" stroke="#227c99" stroke-width="0.1%" stroke-linejoin="round" points="62.77043,11.86795,38.01748,-1.67012,48.79167,20.57615"></polygon><polygon fill="#2176a0" stroke="#2176a0" stroke-width="0.1%" stroke-linejoin="round" points="77.31776,25.46396,77.14427,9.47650,62.77043,11.86795"></polygon><polygon fill="#2e8690" stroke="#2e8690" stroke-width="0.1%" stroke-linejoin="round" points="29.70222,16.75882,17.75216,39.05357,42.19775,34.89248"></polygon><polygon fill="#2f849d" stroke="#2f849d" stroke-width="0.1%" stroke-linejoin="round" points="59.80150,-5.17408,38.01748,-1.67012,62.77043,11.86795"></polygon><polygon fill="#218691" stroke="#218691" stroke-width="0.1%" stroke-linejoin="round" points="29.70222,16.75882,13.42132,20.51233,17.75216,39.05357"></polygon><polygon fill="#1e919c" stroke="#1e919c" stroke-width="0.1%" stroke-linejoin="round" points="36.11068,48.49994,58.99657,65.12116,56.43081,39.98811"></polygon><polygon fill="#2a8897" stroke="#2a8897" stroke-width="0.1%" stroke-linejoin="round" points="44.14224,71.44184,58.99657,65.12116,36.11068,48.49994"></polygon><polygon fill="#328bb4" stroke="#328bb4" stroke-width="0.1%" stroke-linejoin="round" points="77.14427,9.47650,59.80150,-5.17408,62.77043,11.86795"></polygon><polygon fill="#307bad" stroke="#307bad" stroke-width="0.1%" stroke-linejoin="round" points="75.37732,51.66940,89.56844,42.32681,77.31776,25.46396"></polygon><polygon fill="#2387b7" stroke="#2387b7" stroke-width="0.1%" stroke-linejoin="round" points="77.31776,25.46396,100.99714,23.54454,77.14427,9.47650"></polygon><polygon fill="#7365f6" stroke="#7365f6" stroke-width="0.1%" stroke-linejoin="round" points="99.24906,63.34762,89.56844,42.32681,75.37732,51.66940"></polygon><polygon fill="#1f8690" stroke="#1f8690" stroke-width="0.1%" stroke-linejoin="round" points="20.79323,3.52856,13.42132,20.51233,29.70222,16.75882"></polygon><polygon fill="#318393" stroke="#318393" stroke-width="0.1%" stroke-linejoin="round" points="38.01748,-1.67012,20.79323,3.52856,29.70222,16.75882"></polygon><polygon fill="#267e7d" stroke="#267e7d" stroke-width="0.1%" stroke-linejoin="round" points="23.86541,63.29170,44.14224,71.44184,36.11068,48.49994"></polygon><polygon fill="#247a7a" stroke="#247a7a" stroke-width="0.1%" stroke-linejoin="round" points="17.75216,39.05357,23.86541,63.29170,36.11068,48.49994"></polygon><polygon fill="#2c85a1" stroke="#2c85a1" stroke-width="0.1%" stroke-linejoin="round" points="55.33490,85.55217,73.35921,71.52970,58.99657,65.12116"></polygon><polygon fill="#348aab" stroke="#348aab" stroke-width="0.1%" stroke-linejoin="round" points="58.99657,65.12116,73.35921,71.52970,75.37732,51.66940"></polygon><polygon fill="#227989" stroke="#227989" stroke-width="0.1%" stroke-linejoin="round" points="38.01748,-1.67012,15.57597,-11.67424,20.79323,3.52856"></polygon><polygon fill="#308da8" stroke="#308da8" stroke-width="0.1%" stroke-linejoin="round" points="59.80150,-5.17408,39.86041,-17.23725,38.01748,-1.67012"></polygon><polygon fill="#7c5ae9" stroke="#7c5ae9" stroke-width="0.1%" stroke-linejoin="round" points="111.09027,47.86597,100.99714,23.54454,89.56844,42.32681"></polygon><polygon fill="#1f77cb" stroke="#1f77cb" stroke-width="0.1%" stroke-linejoin="round" points="89.56844,42.32681,100.99714,23.54454,77.31776,25.46396"></polygon><polygon fill="#2a86a9" stroke="#2a86a9" stroke-width="0.1%" stroke-linejoin="round" points="86.87523,-15.40491,66.56523,-21.61008,59.80150,-5.17408"></polygon><polygon fill="#317ace" stroke="#317ace" stroke-width="0.1%" stroke-linejoin="round" points="100.99714,23.54454,95.34921,0.43879,77.14427,9.47650"></polygon><polygon fill="#23748b" stroke="#23748b" stroke-width="0.1%" stroke-linejoin="round" points="59.80150,-5.17408,66.56523,-21.61008,39.86041,-17.23725"></polygon><polygon fill="#238c8c" stroke="#238c8c" stroke-width="0.1%" stroke-linejoin="round" points="17.75216,39.05357,8.01486,60.66713,23.86541,63.29170"></polygon><polygon fill="#318989" stroke="#318989" stroke-width="0.1%" stroke-linejoin="round" points="27.84499,82.08212,55.33490,85.55217,44.14224,71.44184"></polygon><polygon fill="#277b6a" stroke="#277b6a" stroke-width="0.1%" stroke-linejoin="round" points="-4.44663,51.46273,8.01486,60.66713,17.75216,39.05357"></polygon><polygon fill="#25799a" stroke="#25799a" stroke-width="0.1%" stroke-linejoin="round" points="86.87523,-15.40491,59.80150,-5.17408,77.14427,9.47650"></polygon><polygon fill="#2e8290" stroke="#2e8290" stroke-width="0.1%" stroke-linejoin="round" points="44.14224,71.44184,55.33490,85.55217,58.99657,65.12116"></polygon><polygon fill="#2b8e8e" stroke="#2b8e8e" stroke-width="0.1%" stroke-linejoin="round" points="27.84499,82.08212,44.14224,71.44184,23.86541,63.29170"></polygon><polygon fill="#298092" stroke="#298092" stroke-width="0.1%" stroke-linejoin="round" points="39.86041,-17.23725,15.57597,-11.67424,38.01748,-1.67012"></polygon><polygon fill="#1e7e87" stroke="#1e7e87" stroke-width="0.1%" stroke-linejoin="round" points="20.79323,3.52856,0.95409,1.72621,13.42132,20.51233"></polygon><polygon fill="#258183" stroke="#258183" stroke-width="0.1%" stroke-linejoin="round" points="13.42132,20.51233,-5.46823,34.56364,17.75216,39.05357"></polygon><polygon fill="#288879" stroke="#288879" stroke-width="0.1%" stroke-linejoin="round" points="14.41226,88.97046,27.84499,82.08212,23.86541,63.29170"></polygon><polygon fill="#299088" stroke="#299088" stroke-width="0.1%" stroke-linejoin="round" points="-10.60364,14.93075,-5.46823,34.56364,13.42132,20.51233"></polygon><polygon fill="#2c80bc" stroke="#2c80bc" stroke-width="0.1%" stroke-linejoin="round" points="73.35921,71.52970,99.24906,63.34762,75.37732,51.66940"></polygon><polygon fill="#696df2" stroke="#696df2" stroke-width="0.1%" stroke-linejoin="round" points="89.58729,82.90424,99.24906,63.34762,73.35921,71.52970"></polygon><polygon fill="#2289bf" stroke="#2289bf" stroke-width="0.1%" stroke-linejoin="round" points="95.34921,0.43879,86.87523,-15.40491,77.14427,9.47650"></polygon><polygon fill="#248c97" stroke="#248c97" stroke-width="0.1%" stroke-linejoin="round" points="15.57597,-11.67424,0.95409,1.72621,20.79323,3.52856"></polygon><polygon fill="#3186a2" stroke="#3186a2" stroke-width="0.1%" stroke-linejoin="round" points="55.33490,85.55217,72.81313,86.23816,73.35921,71.52970"></polygon><polygon fill="#1b8f81" stroke="#1b8f81" stroke-width="0.1%" stroke-linejoin="round" points="-5.46823,34.56364,-4.44663,51.46273,17.75216,39.05357"></polygon><polygon fill="#259284" stroke="#259284" stroke-width="0.1%" stroke-linejoin="round" points="8.01486,60.66713,14.41226,88.97046,23.86541,63.29170"></polygon><polygon fill="#2f77a3" stroke="#2f77a3" stroke-width="0.1%" stroke-linejoin="round" points="95.34921,0.43879,106.90346,-10.68879,86.87523,-15.40491"></polygon><polygon fill="#2c6fbd" stroke="#2c6fbd" stroke-width="0.1%" stroke-linejoin="round" points="100.99714,23.54454,108.75453,8.02987,95.34921,0.43879"></polygon><polygon fill="#436bf4" stroke="#436bf4" stroke-width="0.1%" stroke-linejoin="round" points="123.48376,15.50711,108.75453,8.02987,100.99714,23.54454"></polygon><polygon fill="#7b70ee" stroke="#7b70ee" stroke-width="0.1%" stroke-linejoin="round" points="99.24906,63.34762,111.09027,47.86597,89.56844,42.32681"></polygon><polygon fill="#197f81" stroke="#197f81" stroke-width="0.1%" stroke-linejoin="round" points="0.95409,1.72621,-10.60364,14.93075,13.42132,20.51233"></polygon><polygon fill="#277c71" stroke="#277c71" stroke-width="0.1%" stroke-linejoin="round" points="-5.46823,34.56364,-19.64752,45.41415,-4.44663,51.46273"></polygon><polygon fill="#6b5ce9" stroke="#6b5ce9" stroke-width="0.1%" stroke-linejoin="round" points="99.24906,63.34762,119.11148,69.07143,111.09027,47.86597"></polygon><polygon fill="#3088cf" stroke="#3088cf" stroke-width="0.1%" stroke-linejoin="round" points="72.81313,86.23816,89.58729,82.90424,73.35921,71.52970"></polygon><polygon fill="#8665f4" stroke="#8665f4" stroke-width="0.1%" stroke-linejoin="round" points="111.09027,47.86597,116.22935,33.76376,100.99714,23.54454"></polygon><polygon fill="#2675bd" stroke="#2675bd" stroke-width="0.1%" stroke-linejoin="round" points="108.75453,8.02987,106.90346,-10.68879,95.34921,0.43879"></polygon><polygon fill="#3082a4" stroke="#3082a4" stroke-width="0.1%" stroke-linejoin="round" points="86.87523,-15.40491,118.12245,-22.99761,66.56523,-21.61008"></polygon><polygon fill="#2973b8" stroke="#2973b8" stroke-width="0.1%" stroke-linejoin="round" points="121.21654,-2.02669,106.90346,-10.68879,108.75453,8.02987"></polygon><polygon fill="#2a8e4c" stroke="#2a8e4c" stroke-width="0.1%" stroke-linejoin="round" points="-22.80247,75.08016,-1.12001,74.88515,-4.44663,51.46273"></polygon><polygon fill="#187d6a" stroke="#187d6a" stroke-width="0.1%" stroke-linejoin="round" points="-4.44663,51.46273,-1.12001,74.88515,8.01486,60.66713"></polygon><polygon fill="#2a9276" stroke="#2a9276" stroke-width="0.1%" stroke-linejoin="round" points="-1.12001,74.88515,14.41226,88.97046,8.01486,60.66713"></polygon><polygon fill="#26818d" stroke="#26818d" stroke-width="0.1%" stroke-linejoin="round" points="43.44225,106.68065,69.78212,101.08503,55.33490,85.55217"></polygon><polygon fill="#29839f" stroke="#29839f" stroke-width="0.1%" stroke-linejoin="round" points="55.33490,85.55217,69.78212,101.08503,72.81313,86.23816"></polygon><polygon fill="#7c59ee" stroke="#7c59ee" stroke-width="0.1%" stroke-linejoin="round" points="111.09027,47.86597,119.11148,69.07143,116.22935,33.76376"></polygon><polygon fill="#686cf1" stroke="#686cf1" stroke-width="0.1%" stroke-linejoin="round" points="89.58729,82.90424,103.30541,77.61002,99.24906,63.34762"></polygon><polygon fill="#178078" stroke="#178078" stroke-width="0.1%" stroke-linejoin="round" points="-10.60364,14.93075,-18.39488,27.27157,-5.46823,34.56364"></polygon><polygon fill="#317bba" stroke="#317bba" stroke-width="0.1%" stroke-linejoin="round" points="72.81313,86.23816,95.66254,96.98564,89.58729,82.90424"></polygon><polygon fill="#6f73f4" stroke="#6f73f4" stroke-width="0.1%" stroke-linejoin="round" points="89.58729,82.90424,95.66254,96.98564,103.30541,77.61002"></polygon><polygon fill="#2a7682" stroke="#2a7682" stroke-width="0.1%" stroke-linejoin="round" points="43.44225,106.68065,55.33490,85.55217,27.84499,82.08212"></polygon><polygon fill="#1d8876" stroke="#1d8876" stroke-width="0.1%" stroke-linejoin="round" points="-18.39488,27.27157,-19.64752,45.41415,-5.46823,34.56364"></polygon><polygon fill="#6f64ef" stroke="#6f64ef" stroke-width="0.1%" stroke-linejoin="round" points="116.22935,33.76376,123.48376,15.50711,100.99714,23.54454"></polygon><polygon fill="#c327f2" stroke="#c327f2" stroke-width="0.1%" stroke-linejoin="round" points="119.11148,69.07143,123.48376,15.50711,116.22935,33.76376"></polygon><polygon fill="#1d909c" stroke="#1d909c" stroke-width="0.1%" stroke-linejoin="round" points="15.57597,-11.67424,2.76789,-23.96844,0.95409,1.72621"></polygon><polygon fill="#297e80" stroke="#297e80" stroke-width="0.1%" stroke-linejoin="round" points="0.95409,1.72621,-19.07352,-1.69909,-10.60364,14.93075"></polygon><polygon fill="#278982" stroke="#278982" stroke-width="0.1%" stroke-linejoin="round" points="-10.60364,14.93075,-19.07352,-1.69909,-18.39488,27.27157"></polygon><polygon fill="#1e8092" stroke="#1e8092" stroke-width="0.1%" stroke-linejoin="round" points="39.86041,-17.23725,2.76789,-23.96844,15.57597,-11.67424"></polygon><polygon fill="#2789a4" stroke="#2789a4" stroke-width="0.1%" stroke-linejoin="round" points="66.56523,-21.61008,2.76789,-23.96844,39.86041,-17.23725"></polygon><polygon fill="#278577" stroke="#278577" stroke-width="0.1%" stroke-linejoin="round" points="14.41226,88.97046,28.24389,102.07052,27.84499,82.08212"></polygon><polygon fill="#21826c" stroke="#21826c" stroke-width="0.1%" stroke-linejoin="round" points="12.46070,110.88590,28.24389,102.07052,14.41226,88.97046"></polygon><polygon fill="#298e8b" stroke="#298e8b" stroke-width="0.1%" stroke-linejoin="round" points="28.24389,102.07052,43.44225,106.68065,27.84499,82.08212"></polygon><polygon fill="#3264f6" stroke="#3264f6" stroke-width="0.1%" stroke-linejoin="round" points="123.48376,15.50711,121.21654,-2.02669,108.75453,8.02987"></polygon><polygon fill="#9e60ed" stroke="#9e60ed" stroke-width="0.1%" stroke-linejoin="round" points="103.30541,77.61002,119.11148,69.07143,99.24906,63.34762"></polygon><polygon fill="#c12dc2" stroke="#c12dc2" stroke-width="0.1%" stroke-linejoin="round" points="118.54704,95.06438,119.11148,69.07143,103.30541,77.61002"></polygon><polygon fill="#2f8e9a" stroke="#2f8e9a" stroke-width="0.1%" stroke-linejoin="round" points="2.76789,-23.96844,-10.47435,-15.86781,0.95409,1.72621"></polygon><polygon fill="#208c92" stroke="#208c92" stroke-width="0.1%" stroke-linejoin="round" points="-10.47435,-15.86781,-19.07352,-1.69909,0.95409,1.72621"></polygon><polygon fill="#308e7d" stroke="#308e7d" stroke-width="0.1%" stroke-linejoin="round" points="-18.39488,27.27157,-19.07352,-1.69909,-19.64752,45.41415"></polygon><polygon fill="#8f64f5" stroke="#8f64f5" stroke-width="0.1%" stroke-linejoin="round" points="87.44531,116.06250,95.66254,96.98564,69.78212,101.08503"></polygon><polygon fill="#2788cd" stroke="#2788cd" stroke-width="0.1%" stroke-linejoin="round" points="69.78212,101.08503,95.66254,96.98564,72.81313,86.23816"></polygon><polygon fill="#2d72b6" stroke="#2d72b6" stroke-width="0.1%" stroke-linejoin="round" points="121.21654,-2.02669,118.12245,-22.99761,106.90346,-10.68879"></polygon><polygon fill="#3487b8" stroke="#3487b8" stroke-width="0.1%" stroke-linejoin="round" points="106.90346,-10.68879,118.12245,-22.99761,86.87523,-15.40491"></polygon><polygon fill="#1d7991" stroke="#1d7991" stroke-width="0.1%" stroke-linejoin="round" points="66.56523,-21.61008,118.12245,-22.99761,2.76789,-23.96844"></polygon><polygon fill="#257d7a" stroke="#257d7a" stroke-width="0.1%" stroke-linejoin="round" points="28.24389,102.07052,22.28570,122.25454,43.44225,106.68065"></polygon><polygon fill="#1e7d64" stroke="#1e7d64" stroke-width="0.1%" stroke-linejoin="round" points="-1.12001,74.88515,2.13571,100.37542,14.41226,88.97046"></polygon><polygon fill="#288949" stroke="#288949" stroke-width="0.1%" stroke-linejoin="round" points="-15.14743,89.51017,2.13571,100.37542,-1.12001,74.88515"></polygon><polygon fill="#298066" stroke="#298066" stroke-width="0.1%" stroke-linejoin="round" points="-19.64752,45.41415,-22.80247,75.08016,-4.44663,51.46273"></polygon><polygon fill="#2b918e" stroke="#2b918e" stroke-width="0.1%" stroke-linejoin="round" points="-19.07352,-1.69909,-22.80247,75.08016,-19.64752,45.41415"></polygon><polygon fill="#2c8f4d" stroke="#2c8f4d" stroke-width="0.1%" stroke-linejoin="round" points="-22.80247,75.08016,-15.14743,89.51017,-1.12001,74.88515"></polygon><polygon fill="#23864e" stroke="#23864e" stroke-width="0.1%" stroke-linejoin="round" points="-0.82697,121.12068,12.46070,110.88590,2.13571,100.37542"></polygon><polygon fill="#247f5f" stroke="#247f5f" stroke-width="0.1%" stroke-linejoin="round" points="2.13571,100.37542,12.46070,110.88590,14.41226,88.97046"></polygon><polygon fill="#2d8895" stroke="#2d8895" stroke-width="0.1%" stroke-linejoin="round" points="43.44225,106.68065,62.02331,120.57073,69.78212,101.08503"></polygon><polygon fill="#1b8476" stroke="#1b8476" stroke-width="0.1%" stroke-linejoin="round" points="22.28570,122.25454,62.02331,120.57073,43.44225,106.68065"></polygon><polygon fill="#277299" stroke="#277299" stroke-width="0.1%" stroke-linejoin="round" points="62.02331,120.57073,87.44531,116.06250,69.78212,101.08503"></polygon><polygon fill="#9854ef" stroke="#9854ef" stroke-width="0.1%" stroke-linejoin="round" points="95.66254,96.98564,118.54704,95.06438,103.30541,77.61002"></polygon><polygon fill="#cf30df" stroke="#cf30df" stroke-width="0.1%" stroke-linejoin="round" points="108.42000,109.37662,118.54704,95.06438,95.66254,96.98564"></polygon><polygon fill="#c436f2" stroke="#c436f2" stroke-width="0.1%" stroke-linejoin="round" points="119.11148,69.07143,123.60356,112.47913,123.48376,15.50711"></polygon><polygon fill="#268c74" stroke="#268c74" stroke-width="0.1%" stroke-linejoin="round" points="12.46070,110.88590,22.28570,122.25454,28.24389,102.07052"></polygon><polygon fill="#1c8c50" stroke="#1c8c50" stroke-width="0.1%" stroke-linejoin="round" points="-0.82697,121.12068,22.28570,122.25454,12.46070,110.88590"></polygon><polygon fill="#885ced" stroke="#885ced" stroke-width="0.1%" stroke-linejoin="round" points="87.44531,116.06250,108.42000,109.37662,95.66254,96.98564"></polygon><polygon fill="#538b22" stroke="#538b22" stroke-width="0.1%" stroke-linejoin="round" points="-15.86618,121.32538,-0.82697,121.12068,2.13571,100.37542"></polygon><polygon fill="#5a8726" stroke="#5a8726" stroke-width="0.1%" stroke-linejoin="round" points="-23.64966,108.40525,2.13571,100.37542,-15.14743,89.51017"></polygon><polygon fill="#2d9450" stroke="#2d9450" stroke-width="0.1%" stroke-linejoin="round" points="-22.80247,75.08016,-23.64966,108.40525,-15.14743,89.51017"></polygon><polygon fill="#b420c2" stroke="#b420c2" stroke-width="0.1%" stroke-linejoin="round" points="108.42000,109.37662,123.60356,112.47913,118.54704,95.06438"></polygon><polygon fill="#b725b8" stroke="#b725b8" stroke-width="0.1%" stroke-linejoin="round" points="118.54704,95.06438,123.60356,112.47913,119.11148,69.07143"></polygon><polygon fill="#9268f8" stroke="#9268f8" stroke-width="0.1%" stroke-linejoin="round" points="87.44531,116.06250,123.60356,112.47913,108.42000,109.37662"></polygon><polygon fill="#2078a3" stroke="#2078a3" stroke-width="0.1%" stroke-linejoin="round" points="62.02331,120.57073,123.60356,112.47913,87.44531,116.06250"></polygon><polygon fill="#507b1a" stroke="#507b1a" stroke-width="0.1%" stroke-linejoin="round" points="-23.64966,108.40525,-15.86618,121.32538,2.13571,100.37542"></polygon><polygon fill="#2b8953" stroke="#2b8953" stroke-width="0.1%" stroke-linejoin="round" points="-0.82697,121.12068,-15.86618,121.32538,22.28570,122.25454"></polygon></g></svg>
